<svg width="24" height="24" viewBox="0 0 24 24" fill="none" xmlns="http://www.w3.org/2000/svg">
<path d="M15.7118 16.773L7.22651 8.28777C6.93659 7.99785 6.93659 7.51702 7.22651 7.22711C7.51642 6.93719 7.99725 6.93719 8.28717 7.22711L16.7724 15.7124C17.0624 16.0023 17.0624 16.4831 16.7724 16.773C16.4825 17.063 16.0017 17.063 15.7118 16.773Z" fill="#1B1B1B"/>
<path d="M7.22755 16.773C6.93764 16.4831 6.93764 16.0023 7.22755 15.7124L15.7128 7.22711C16.0027 6.93719 16.4836 6.93719 16.7735 7.22711C17.0634 7.51702 17.0634 7.99785 16.7735 8.28777L8.28821 16.773C7.9983 17.063 7.51747 17.063 7.22755 16.773Z" fill="#1B1B1B"/>
</svg>
