<svg width="75" height="77" viewBox="0 0 75 77" fill="none" xmlns="http://www.w3.org/2000/svg">
<g filter="url(#filter0_d_2471_43)">
<rect x="5" y="5" width="64" height="64" rx="12" fill="white" shape-rendering="crispEdges"/>
<mask id="path-2-inside-1_2471_43" fill="white">
<path d="M56.1192 34.92L54.3992 32.94H55.1392C56.4192 32.94 57.4592 31.9 57.4592 30.62V29.86C57.4592 28.58 56.4192 27.54 55.1392 27.54H54.4792C53.9192 27.54 53.4792 27.98 53.4792 28.54C53.4792 29.1 53.9192 29.54 54.4792 29.54H55.1392C55.3192 29.54 55.4592 29.68 55.4592 29.86V30.62C55.4592 30.8 55.3192 30.94 55.1392 30.94H53.7392L52.2392 26.04C51.2592 22.88 48.3992 20.78 45.0992 20.78H28.8992C25.5992 20.78 22.7392 22.9 21.7592 26.04L20.2592 30.94H18.8592C18.6792 30.94 18.5392 30.8 18.5392 30.62V29.86C18.5392 29.68 18.6792 29.54 18.8592 29.54H19.5192C20.0792 29.54 20.5192 29.1 20.5192 28.54C20.5192 27.98 20.0792 27.54 19.5192 27.54H18.8592C17.5792 27.54 16.5392 28.58 16.5392 29.86V30.62C16.5392 31.9 17.5792 32.94 18.8592 32.94H19.5992L17.8792 34.92C16.7992 36.16 16.1992 37.76 16.1992 39.42V45.16C16.1992 46.38 16.8792 47.44 17.8992 48V50.26C17.8992 51.92 19.2392 53.26 20.8992 53.26H24.3392C25.9992 53.26 27.3392 51.92 27.3392 50.26V48.42H46.6592V50.26C46.6592 51.92 47.9992 53.26 49.6592 53.26H53.0992C54.7592 53.26 56.0992 51.92 56.0992 50.26V48C57.0992 47.44 57.7992 46.4 57.7992 45.16V39.42C57.7992 37.76 57.1992 36.16 56.1192 34.92ZM19.3992 36.24L21.3192 34.04C21.4192 33.94 21.4792 33.82 21.5192 33.68L21.9192 32.38C21.9192 32.38 21.9592 32.26 21.9792 32.2L23.6992 26.64C24.4192 24.34 26.5192 22.78 28.9192 22.78H45.0992C47.5192 22.78 49.6192 24.32 50.3192 26.64L52.0392 32.2C52.0392 32.2 52.0592 32.32 52.0992 32.38L52.4992 33.68C52.5392 33.82 52.5992 33.94 52.6992 34.04L54.6192 36.24C55.3792 37.12 55.8192 38.26 55.8192 39.44V42.34H51.2592C50.5992 42.34 50.0392 41.8 50.0392 41.12V39.84C50.0392 39.18 50.5792 38.62 51.2592 38.62H53.6992C54.2592 38.62 54.6992 38.18 54.6992 37.62C54.6992 37.06 54.2592 36.62 53.6992 36.62H51.2592C49.4792 36.62 48.0392 38.06 48.0392 39.84V41.12C48.0392 42.9 49.4792 44.34 51.2592 44.34H55.8192V45.18C55.8192 45.86 55.2592 46.42 54.5792 46.42H44.2992V43C44.2992 42.44 43.8592 42 43.2992 42H30.7392C30.1792 42 29.7392 42.44 29.7392 43V46.42H19.4592C18.7792 46.42 18.2192 45.86 18.2192 45.18V44.34H22.7792C24.5592 44.34 25.9992 42.9 25.9992 41.12V39.84C25.9992 38.06 24.5592 36.62 22.7792 36.62H20.3392C19.7792 36.62 19.3392 37.06 19.3392 37.62C19.3392 38.18 19.7792 38.62 20.3392 38.62H22.7792C23.4392 38.62 23.9992 39.16 23.9992 39.84V41.12C23.9992 41.78 23.4592 42.34 22.7792 42.34H18.2192V39.44C18.2192 38.26 18.6392 37.14 19.4192 36.24H19.3992ZM25.3392 50.24C25.3392 50.8 24.8992 51.24 24.3392 51.24H20.8992C20.3392 51.24 19.8992 50.8 19.8992 50.24V48.4H25.3392V50.24ZM31.7192 46.4V43.98H42.2792V46.4H31.7192ZM54.0992 50.24C54.0992 50.8 53.6592 51.24 53.0992 51.24H49.6592C49.0992 51.24 48.6592 50.8 48.6592 50.24V48.4H54.0992V50.24Z"/>
</mask>
<path d="M56.1192 34.92L54.3992 32.94H55.1392C56.4192 32.94 57.4592 31.9 57.4592 30.62V29.86C57.4592 28.58 56.4192 27.54 55.1392 27.54H54.4792C53.9192 27.54 53.4792 27.98 53.4792 28.54C53.4792 29.1 53.9192 29.54 54.4792 29.54H55.1392C55.3192 29.54 55.4592 29.68 55.4592 29.86V30.62C55.4592 30.8 55.3192 30.94 55.1392 30.94H53.7392L52.2392 26.04C51.2592 22.88 48.3992 20.78 45.0992 20.78H28.8992C25.5992 20.78 22.7392 22.9 21.7592 26.04L20.2592 30.94H18.8592C18.6792 30.94 18.5392 30.8 18.5392 30.62V29.86C18.5392 29.68 18.6792 29.54 18.8592 29.54H19.5192C20.0792 29.54 20.5192 29.1 20.5192 28.54C20.5192 27.98 20.0792 27.54 19.5192 27.54H18.8592C17.5792 27.54 16.5392 28.58 16.5392 29.86V30.62C16.5392 31.9 17.5792 32.94 18.8592 32.94H19.5992L17.8792 34.92C16.7992 36.16 16.1992 37.76 16.1992 39.42V45.16C16.1992 46.38 16.8792 47.44 17.8992 48V50.26C17.8992 51.92 19.2392 53.26 20.8992 53.26H24.3392C25.9992 53.26 27.3392 51.92 27.3392 50.26V48.42H46.6592V50.26C46.6592 51.92 47.9992 53.26 49.6592 53.26H53.0992C54.7592 53.26 56.0992 51.92 56.0992 50.26V48C57.0992 47.44 57.7992 46.4 57.7992 45.16V39.42C57.7992 37.76 57.1992 36.16 56.1192 34.92ZM19.3992 36.24L21.3192 34.04C21.4192 33.94 21.4792 33.82 21.5192 33.68L21.9192 32.38C21.9192 32.38 21.9592 32.26 21.9792 32.2L23.6992 26.64C24.4192 24.34 26.5192 22.78 28.9192 22.78H45.0992C47.5192 22.78 49.6192 24.32 50.3192 26.64L52.0392 32.2C52.0392 32.2 52.0592 32.32 52.0992 32.38L52.4992 33.68C52.5392 33.82 52.5992 33.94 52.6992 34.04L54.6192 36.24C55.3792 37.12 55.8192 38.26 55.8192 39.44V42.34H51.2592C50.5992 42.34 50.0392 41.8 50.0392 41.12V39.84C50.0392 39.18 50.5792 38.62 51.2592 38.62H53.6992C54.2592 38.62 54.6992 38.18 54.6992 37.62C54.6992 37.06 54.2592 36.62 53.6992 36.62H51.2592C49.4792 36.62 48.0392 38.06 48.0392 39.84V41.12C48.0392 42.9 49.4792 44.34 51.2592 44.34H55.8192V45.18C55.8192 45.86 55.2592 46.42 54.5792 46.42H44.2992V43C44.2992 42.44 43.8592 42 43.2992 42H30.7392C30.1792 42 29.7392 42.44 29.7392 43V46.42H19.4592C18.7792 46.42 18.2192 45.86 18.2192 45.18V44.34H22.7792C24.5592 44.34 25.9992 42.9 25.9992 41.12V39.84C25.9992 38.06 24.5592 36.62 22.7792 36.62H20.3392C19.7792 36.62 19.3392 37.06 19.3392 37.62C19.3392 38.18 19.7792 38.62 20.3392 38.62H22.7792C23.4392 38.62 23.9992 39.16 23.9992 39.84V41.12C23.9992 41.78 23.4592 42.34 22.7792 42.34H18.2192V39.44C18.2192 38.26 18.6392 37.14 19.4192 36.24H19.3992ZM25.3392 50.24C25.3392 50.8 24.8992 51.24 24.3392 51.24H20.8992C20.3392 51.24 19.8992 50.8 19.8992 50.24V48.4H25.3392V50.24ZM31.7192 46.4V43.98H42.2792V46.4H31.7192ZM54.0992 50.24C54.0992 50.8 53.6592 51.24 53.0992 51.24H49.6592C49.0992 51.24 48.6592 50.8 48.6592 50.24V48.4H54.0992V50.24Z" fill="#43B149" stroke="#43B149" stroke-width="6" mask="url(#path-2-inside-1_2471_43)"/>
<path d="M24.9805 32.92H49.0205C49.5805 32.92 50.0205 32.48 50.0205 31.92C50.0205 31.36 49.5805 30.92 49.0205 30.92H24.9805C24.4205 30.92 23.9805 31.36 23.9805 31.92C23.9805 32.48 24.4205 32.92 24.9805 32.92Z" fill="#43B149"/>
<path d="M45.1803 36.6H28.8203C28.2603 36.6 27.8203 37.04 27.8203 37.6C27.8203 38.16 28.2603 38.6 28.8203 38.6H45.1803C45.7403 38.6 46.1803 38.16 46.1803 37.6C46.1803 37.04 45.7403 36.6 45.1803 36.6Z" fill="#43B149"/>
</g>
<rect x="1" y="1" width="73" height="73" rx="16" stroke="url(#paint0_linear_2471_43)" stroke-width="2"/>
<defs>
<filter id="filter0_d_2471_43" x="1" y="5" width="72" height="72" filterUnits="userSpaceOnUse" color-interpolation-filters="sRGB">
<feFlood flood-opacity="0" result="BackgroundImageFix"/>
<feColorMatrix in="SourceAlpha" type="matrix" values="0 0 0 0 0 0 0 0 0 0 0 0 0 0 0 0 0 0 127 0" result="hardAlpha"/>
<feOffset dy="4"/>
<feGaussianBlur stdDeviation="2"/>
<feComposite in2="hardAlpha" operator="out"/>
<feColorMatrix type="matrix" values="0 0 0 0 0 0 0 0 0 0 0 0 0 0 0 0 0 0 0.1 0"/>
<feBlend mode="normal" in2="BackgroundImageFix" result="effect1_dropShadow_2471_43"/>
<feBlend mode="normal" in="SourceGraphic" in2="effect1_dropShadow_2471_43" result="shape"/>
</filter>
<linearGradient id="paint0_linear_2471_43" x1="37.5" y1="1" x2="37.5" y2="74" gradientUnits="userSpaceOnUse">
<stop stop-color="#43B149" stop-opacity="0.25"/>
<stop offset="1" stop-color="#43B149"/>
</linearGradient>
</defs>
</svg>
